HIERARCHY
ROOT Hips
{
 OFFSET 0.000000 0.000000 0.000000
 CHANNELS 6 Xposition Yposition Zposition Yrotation Xrotation Zrotation
 JOINT Chest
 {
  OFFSET 0.000000 9.585900 0.002600
  CHANNELS 3 Yrotation Xrotation Zrotation
  JOINT Chest2
  {
   OFFSET 0.000000 9.601200 -0.005300
   CHANNELS 3 Yrotation Xrotation Zrotation
   JOINT Chest3
   {
    OFFSET 0.000000 9.561800 0.000000
    CHANNELS 3 Yrotation Xrotation Zrotation
    JOINT Chest4
    {
     OFFSET 0.000000 9.552100 0.000000
     CHANNELS 3 Yrotation Xrotation Zrotation
     JOINT Neck
     {
      OFFSET 0.000000 14.453000 0.000000
      CHANNELS 3 Yrotation Xrotation Zrotation
      JOINT Head
      {
       OFFSET 0.000000 8.936500 -0.011300
       CHANNELS 3 Yrotation Xrotation Zrotation
       End Site
       {
        OFFSET 0.000000 17.073600 -0.006000
       }
      }
     }
     JOINT RightCollar
     {
      OFFSET -2.921100 9.558500 0.000000
      CHANNELS 3 Yrotation Xrotation Zrotation
      JOINT RightShoulder
      {
       OFFSET -13.519700 0.000000 0.000000
       CHANNELS 3 Yrotation Xrotation Zrotation
       JOINT RightElbow
       {
        OFFSET 0.000000 -29.696600 0.000000
        CHANNELS 3 Yrotation Xrotation Zrotation
        JOINT RightWrist
        {
         OFFSET 0.000000 -24.004700 0.000000
         CHANNELS 3 Yrotation Xrotation Zrotation
         End Site
         {
          OFFSET 0.000000 -17.728500 0.000000
         }
        }
       }
      }
     }
     JOINT LeftCollar
     {
      OFFSET 2.921100 9.558500 0.000000
      CHANNELS 3 Yrotation Xrotation Zrotation
      JOINT LeftShoulder
      {
       OFFSET 13.519700 0.000000 0.000000
       CHANNELS 3 Yrotation Xrotation Zrotation
       JOINT LeftElbow
       {
        OFFSET 0.000000 -29.696600 0.000000
        CHANNELS 3 Yrotation Xrotation Zrotation
        JOINT LeftWrist
        {
         OFFSET 0.000000 -24.004700 0.000000
         CHANNELS 3 Yrotation Xrotation Zrotation
         End Site
         {
          OFFSET 0.000000 -17.728500 0.000000
         }
        }
       }
      }
     }
    }
   }
  }
 }
 JOINT RightHip
 {
  OFFSET -7.771700 -0.012900 -0.001300
  CHANNELS 3 Yrotation Xrotation Zrotation
  JOINT RightKnee
  {
   OFFSET 0.000000 -40.869800 0.001200
   CHANNELS 3 Yrotation Xrotation Zrotation
   JOINT RightAnkle
   {
    OFFSET 0.000000 -39.717900 0.002100
    CHANNELS 3 Yrotation Xrotation Zrotation
    JOINT RightToe
    {
     OFFSET 0.000000 -4.965400 11.033500
     CHANNELS 3 Yrotation Xrotation Zrotation
     End Site
     {
      OFFSET 0.000000 -1.423100 5.872300
     }
    }
   }
  }
 }
 JOINT LeftHip
 {
  OFFSET 7.771700 -0.012900 -0.001300
  CHANNELS 3 Yrotation Xrotation Zrotation
  JOINT LeftKnee
  {
   OFFSET 0.000000 -40.869800 0.001200
   CHANNELS 3 Yrotation Xrotation Zrotation
   JOINT LeftAnkle
   {
    OFFSET 0.000000 -39.717900 0.002100
    CHANNELS 3 Yrotation Xrotation Zrotation
    JOINT LeftToe
    {
     OFFSET 0.000000 -4.965400 11.033500
     CHANNELS 3 Yrotation Xrotation Zrotation
     End Site
     {
      OFFSET 0.000000 -1.423100 5.872300
     }
    }
   }
  }
 }
}
MOTION
Frames: 14
Frame Time: 0.008333
0.000000 85.388000 0.000000 0.000000 -5.767877 0.000000 0.000000 11.653817 0.000000 0.000000 -5.885947 0.000000 0.000000 -0.000000 0.000000 0.000000 -0.000000 0.000000 0.000000 12.528835 0.000000 0.000000 0.711642 0.000000 0.000000 -0.000000 0.000000 0.000000 0.000000 -90.000000 0.000000 -2.309062 0.000000 0.000000 2.309062 0.000000 0.000000 -0.000000 0.000000 0.000000 -0.000000 90.000000 0.000000 -2.309062 0.000000 0.000000 2.309062 0.000000 0.000000 8.520406 0.000000 0.000000 1.905762 0.000000 -0.000000 -4.658285 0.000000 0.000000 -0.000000 0.000000 0.000000 8.520406 0.000000 0.000000 1.905762 0.000000 -0.000000 -4.658285 0.000000 0.000000 -0.000000 0.000000
-234.304877 57.725809 22.586484 172.481372 -50.256601 -1.490524 4.999506 22.400532 5.099170 2.555318 12.853590 2.601424 3.309280 16.046554 3.365607 2.555375 12.853566 2.601381 4.859146 20.403392 0.202600 8.779090 2.212579 -1.058515 -0.185442 6.468158 2.142314 -6.441136 -14.852335 -10.502625 -92.531329 -62.175655 135.885052 6.918258 12.897737 -29.531392 -6.762034 6.569341 3.706849 28.077622 -16.907130 1.756534 167.808921 -61.333028 -173.265351 -24.711942 -5.965592 -7.170087 7.901202 -21.616206 -0.822921 -42.517083 71.498362 -46.038722 4.565914 -12.543326 13.247882 0.006949 0.020909 -0.012953 -9.494522 -19.022266 8.633059 55.065556 81.477574 56.954722 0.748114 -18.153773 -23.175942 -0.006268 -0.002817 0.020375
-234.303882 57.726383 22.589737 172.493223 -50.254153 -1.479993 5.017295 22.418173 5.088171 2.557371 12.864964 2.589696 3.302917 16.049924 3.359748 2.556182 12.862977 2.592369 4.967110 20.363978 0.201239 8.972405 2.115591 -1.069240 -0.092732 6.462885 2.123549 -6.380565 -14.794035 -10.543674 -92.813751 -62.145238 136.133309 6.987203 12.848399 -29.423847 -6.580604 6.641388 3.766942 28.859438 -16.367205 1.377767 169.049471 -61.157196 -174.113363 -24.974553 -5.643568 -7.365878 7.883388 -21.625123 -0.843911 -42.505059 71.509830 -46.038851 4.572203 -12.538647 13.250444 0.005676 0.014060 -0.016868 -9.529399 -19.023507 8.642038 55.028815 81.469961 56.863001 0.735382 -18.141473 -23.164646 -0.015361 0.001121 0.026156
-234.305165 57.726436 22.592487 172.521611 -50.246298 -1.466863 5.022375 22.434469 5.059203 2.562443 12.873095 2.578359 3.309031 16.060149 3.345849 2.538975 12.829758 2.624839 5.063744 20.346210 0.170066 9.139754 2.000183 -1.070678 -0.006112 6.487018 2.066724 -6.317026 -14.713209 -10.588137 -93.078875 -62.114300 136.374179 7.051724 12.795265 -29.292673 -6.414517 6.725962 3.779737 29.551415 -15.801542 1.092971 170.274058 -60.851205 -174.948652 -25.132776 -5.469922 -7.441366 7.856633 -21.639551 -0.881833 -42.482762 71.529852 -46.021541 4.565562 -12.533093 13.240544 0.011820 0.008057 -0.017751 -9.566851 -19.034177 8.637307 54.980560 81.453707 56.746895 0.708636 -18.122323 -23.135995 -0.022617 0.001518 0.024841
-234.307648 57.723121 22.596691 172.564640 -50.210723 -1.460153 4.996446 22.414464 5.017122 2.591838 12.893455 2.561108 3.329003 16.077427 3.323096 2.562261 12.864420 2.583497 5.141428 20.226986 0.236410 9.280284 1.867089 -1.057804 0.040604 6.427997 2.107839 -6.254014 -14.616201 -10.634643 -93.332691 -62.084409 136.610589 7.115572 12.743318 -29.135721 -6.289932 6.725259 3.904333 30.160319 -15.218391 0.880027 171.298296 -60.443637 -175.662012 -25.151316 -5.424329 -7.356242 7.805211 -21.693648 -0.930304 -42.443769 71.565912 -46.006880 4.564788 -12.521897 13.238231 0.015566 -0.004822 -0.019251 -9.604424 -19.076037 8.619779 54.970975 81.454669 56.706118 0.705224 -18.119960 -23.137345 -0.018538 -0.001310 0.018031
-234.307249 57.721378 22.598346 172.594147 -50.185613 -1.461539 4.988386 22.404481 4.994821 2.600411 12.895962 2.554021 3.336015 16.079627 3.315866 2.609211 12.903434 2.518542 5.162739 20.143247 0.318219 9.428786 1.713877 -1.076931 0.078672 6.398144 2.129660 -6.193166 -14.506249 -10.681005 -93.579096 -62.055650 136.842501 7.189450 12.707315 -28.950491 -6.169193 6.744697 4.024045 30.698308 -14.628945 0.714100 171.953526 -59.967855 -176.157231 -25.003888 -5.481329 -7.109088 7.778902 -21.722711 -0.959451 -42.444505 71.580686 -46.009122 4.566900 -12.523744 13.230711 0.016143 -0.007775 -0.018471 -9.624520 -19.104362 8.609460 54.956258 81.451068 56.676818 0.699942 -18.119016 -23.136684 -0.015333 0.000364 0.016586
-234.305944 57.719676 22.598101 172.627526 -50.158536 -1.474763 5.016070 22.406379 4.985331 2.584175 12.880658 2.554851 3.401619 16.109606 3.265996 2.617257 12.891605 2.525465 5.232922 20.050980 0.337642 9.492916 1.554203 -1.008735 0.110567 6.381026 2.132197 -6.138389 -14.382578 -10.723251 -93.833139 -62.029172 137.085026 7.275757 12.691137 -28.736227 -6.038382 6.771714 4.153287 31.158946 -14.040314 0.581574 172.132289 -59.456937 -176.371637 -24.679361 -5.620646 -6.718627 7.757323 -21.750207 -0.979849 -42.479846 71.593040 -46.025123 4.566856 -12.535695 13.208985 0.021827 -0.006066 -0.012580 -9.663646 -19.131622 8.623593 54.942914 81.453322 56.626459 0.691365 -18.115653 -23.127736 -0.015823 0.000795 0.015385
-234.305951 57.715978 22.597196 172.654237 -50.113544 -1.480435 5.048642 22.390400 4.966444 2.603584 12.880676 2.544855 3.449921 16.119944 3.239287 2.625693 12.878495 2.534587 5.288511 19.952200 0.360576 9.530146 1.386858 -0.927471 0.133727 6.360447 2.131029 -6.093081 -14.246410 -10.763853 -94.097807 -62.005065 137.341016 7.373376 12.680861 -28.491984 -5.889802 6.788959 4.314438 31.524537 -13.453034 0.479548 171.812675 -58.935257 -176.295500 -24.183160 -5.828396 -6.203004 7.724213 -21.800207 -1.006837 -42.452931 71.617554 -46.007027 4.550782 -12.535962 13.193696 0.033739 -0.009392 -0.001129 -9.689572 -19.179024 8.636782 54.977730 81.452861 56.628519 0.692397 -18.101565 -23.109395 -0.038331 -0.006140 0.004277
-234.305624 57.713898 22.592884 172.668153 -50.078343 -1.481982 5.156076 22.423727 4.957353 2.574577 12.838706 2.554677 3.438770 16.096971 3.255433 2.683739 12.897747 2.484186 5.308886 19.858603 0.405257 9.557332 1.211092 -0.858646 0.150582 6.336408 2.126370 -6.062575 -14.103167 -10.804020 -94.361218 -61.980548 137.601658 7.484393 12.664234 -28.219596 -5.720063 6.795836 4.509488 31.787974 -12.869206 0.405595 171.037488 -58.420280 -175.957392 -23.526294 -6.096297 -5.586356 7.701496 -21.842167 -1.020646 -42.456504 71.638985 -46.017787 4.557753 -12.549312 13.194178 0.027670 -0.007871 -0.008167 -9.700467 -19.216806 8.644250 54.969517 81.461744 56.612437 0.674794 -18.115118 -23.114721 -0.010921 -0.003833 0.013608
-234.304943 57.712174 22.586386 172.681792 -50.042694 -1.490277 5.208453 22.423997 4.955039 2.596826 12.833569 2.544080 3.496649 16.100375 3.233414 2.693348 12.881362 2.496535 5.314753 19.765265 0.454218 9.556676 1.034618 -0.777714 0.164588 6.308123 2.114051 -6.050272 -13.954106 -10.842334 -94.624946 -61.951280 137.872761 7.606805 12.639569 -27.929037 -5.533009 6.795605 4.731492 31.961024 -12.295054 0.355763 169.857504 -57.926660 -175.396442 -22.732708 -6.421741 -4.902896 7.675694 -21.882305 -1.026376 -42.457878 71.655943 -46.030270 4.557591 -12.557545 13.192722 0.032139 -0.010025 -0.010195 -9.682728 -19.256115 8.662401 54.937842 81.477077 56.591642 0.664049 -18.122717 -23.105619 -0.004692 -0.006119 0.012782
-234.304880 57.712959 22.575922 172.677915 -50.023985 -1.485117 5.275147 22.440800 4.957843 2.681703 12.855257 2.516746 3.505666 16.070029 3.246463 2.701265 12.864309 2.510637 5.306429 19.674227 0.505643 9.529234 0.861564 -0.687804 0.175063 6.272794 2.091779 -6.053109 -13.794514 -10.881605 -94.898668 -61.910625 138.163964 7.736538 12.608236 -27.632246 -5.339735 6.792886 4.967712 32.063591 -11.736437 0.325503 168.319816 -57.462439 -174.654864 -21.846973 -6.809276 -4.180700 7.660808 -21.909270 -1.033094 -42.450161 71.672910 -46.037934 4.579677 -12.559024 13.193636 0.021141 -0.018836 -0.014641 -9.668669 -19.274603 8.667369 55.061200 81.478739 56.704567 0.662930 -18.137975 -23.096916 -0.021945 -0.003722 0.014687
-234.306781 57.710163 22.566625 172.701163 -49.974849 -1.496689 5.322247 22.427248 4.958710 2.726658 12.857868 2.506745 3.470269 16.036412 3.268363 2.768474 12.877069 2.477159 5.283098 19.587358 0.557307 9.474079 0.695526 -0.592508 0.180912 6.226962 2.061898 -6.069864 -13.621770 -10.924781 -95.176554 -61.855032 138.470311 7.871759 12.570150 -27.345424 -5.150337 6.793112 5.206919 32.104248 -11.196476 0.311307 166.482505 -57.028382 -173.766146 -20.923524 -7.269456 -3.441842 7.647940 -21.960026 -1.049934 -42.472531 71.691875 -46.057128 4.568471 -12.571671 13.188573 0.035782 -0.018139 -0.006928 -9.670335 -19.325301 8.668312 55.062691 81.483242 56.716226 0.660872 -18.143631 -23.098019 -0.021172 -0.003986 0.016615
-234.311358 57.705183 22.557424 172.735382 -49.907113 -1.507429 5.356462 22.395457 4.952464 2.751176 12.850532 2.505669 3.451101 16.014918 3.274515 2.835674 12.885523 2.455838 5.226893 19.527401 0.619032 9.411106 0.523694 -0.515246 0.185557 6.170084 2.026967 -6.096475 -13.436376 -10.974415 -95.454183 -61.787942 138.782779 8.009963 12.527731 -27.083440 -4.968715 6.797509 5.437840 32.080393 -10.672336 0.316394 164.423230 -56.616996 -172.765141 -20.019037 -7.799563 -2.711454 7.634612 -22.026505 -1.078499 -42.498782 71.707416 -46.079781 4.556308 -12.585282 13.181322 0.023646 -0.014462 0.002928 -9.604219 -19.406981 8.636436 55.047264 81.489177 56.770184 0.663363 -18.157114 -23.088260 -0.024807 -0.001254 0.011261
-234.312650 57.703766 22.544494 172.737841 -49.867296 -1.516893 5.388332 22.371627 4.966161 2.802783 12.858812 2.507585 3.555757 16.025771 3.258757 2.796362 12.848833 2.497305 5.187520 19.446076 0.661139 9.299300 0.393013 -0.403270 0.190420 6.107649 1.986625 -6.125589 -13.241940 -11.031321 -95.734014 -61.713977 139.095149 8.147407 12.481540 -26.856611 -4.801324 6.800992 5.649500 31.986452 -10.153689 0.348788 162.254692 -56.214493 -171.710831 -19.166482 -8.384282 -2.009267 7.632879 -22.068408 -1.079794 -42.528021 71.727523 -46.105193 4.536614 -12.590229 13.166043 0.039808 -0.023828 0.019911 -9.558131 -19.452157 8.638644 55.156477 81.500613 56.912167 0.680539 -18.166727 -23.072062 -0.054281 -0.006727 -0.000067
